<?xml version="1.0" encoding="UTF-8" standalone="no"?>
<!DOCTYPE svg PUBLIC "-//W3C//DTD SVG 1.1//EN" "http://www.w3.org/Graphics/SVG/1.1/DTD/svg11.dtd">
<svg width="100%" height="100%" viewBox="0 0 300 95" version="1.1" xmlns="http://www.w3.org/2000/svg" xmlns:xlink="http://www.w3.org/1999/xlink" xml:space="preserve" xmlns:serif="http://www.serif.com/" style="fill-rule:evenodd;clip-rule:evenodd;stroke-linejoin:round;stroke-miterlimit:2;">
    <g transform="matrix(0.303921,0,0,0.378007,-106.879,-89.3135)">
        <path d="M380.818,260.864C380.819,260.813 380.818,260.762 380.82,260.711C380.881,258.047 383.59,255.914 386.905,255.922C390.219,255.929 392.913,258.073 392.956,260.738L392.957,260.891L393.398,288.27C393.409,288.952 393.245,289.604 392.94,290.197C392.365,312.913 389.854,358.04 380.621,466.209C380.391,468.895 377.492,470.927 374.15,470.743C370.808,470.558 368.281,468.227 368.511,465.54C384.295,280.645 380.389,280.382 380.818,260.864Z"/>
    </g>
    <g transform="matrix(0.303921,0,0,0.378007,-106.879,-89.3135)">
        <path d="M389.836,257.681C390.154,257.881 390.65,258.175 391.083,258.351C394.07,259.57 395.265,262.509 393.75,264.91C392.234,267.312 388.579,268.273 385.591,267.055C380.301,264.897 378.106,261.954 377.604,259.131C376.939,255.386 379.621,250.814 386.023,247.175C403.779,237.085 451.705,232.141 467.831,268.423C477.092,289.261 467.114,311.829 450.524,331.697C432.564,353.206 407.13,371.52 393.357,380.686C415.944,387.144 436.027,400.623 483.525,478.732C484.997,481.151 483.748,484.076 480.739,485.259C477.73,486.442 474.092,485.438 472.621,483.018C420.903,397.971 405.209,393.472 378.942,387.292C376.752,386.777 375.106,385.317 374.683,383.513C374.26,381.71 375.131,379.868 376.938,378.746C382.486,375.303 417.727,353.466 440.446,326.258C454.796,309.072 464.411,289.731 456.4,271.707C445.656,247.532 416.692,247 399.963,252.244C395.896,253.519 392.552,255.093 390.587,256.829C390.318,257.067 390.027,257.428 389.836,257.681Z"/>
    </g>
    <g transform="matrix(0.303921,0,0,0.378007,-114.409,-89.1548)">
        <path d="M507.301,350.171C507.165,347.48 509.771,345.206 513.118,345.096C516.465,344.986 519.293,347.082 519.429,349.773C522.069,401.785 521.826,401.09 520.676,452.826C520.616,455.519 517.849,457.666 514.5,457.618C511.15,457.57 508.48,455.344 508.54,452.652C509.683,401.203 509.926,401.894 507.301,350.171Z"/>
    </g>
    <g transform="matrix(0.303921,0,0,0.378007,-114.409,-89.1548)">
        <path d="M507.233,316.092C508.15,315.623 509.654,316.525 511.405,320.657L510.681,313.544L511.328,313.456L512.35,323.146C512.35,323.146 512.469,323.152 512.689,323.142L511.668,323.238L511.656,323.114C511.645,323.113 511.635,323.112 511.625,323.111C511.639,323.153 511.654,323.195 511.668,323.238C508.319,323.238 505.599,321.051 505.599,318.358C505.599,317.072 506.22,315.901 507.233,316.092ZM512.689,323.142L513.334,323.081C513.068,323.117 512.851,323.134 512.689,323.142Z"/>
    </g>
    <g transform="matrix(0.303921,0,0,0.378007,-114.409,-89.1548)">
        <path d="M709.184,373.33C708.669,370.669 710.938,368.172 714.248,367.758C717.557,367.344 720.663,369.168 721.178,371.829C728.061,407.393 729.42,405.873 730.928,442.831C731.038,445.522 728.409,447.779 725.061,447.868C721.714,447.956 718.906,445.843 718.797,443.151C717.313,406.806 715.953,408.303 709.184,373.33Z"/>
    </g>
    <g transform="matrix(0.303921,0,0,0.378007,-114.409,-89.1548)">
        <path d="M708.349,320.216C709.282,319.793 710.792,320.762 712.543,324.963L712.553,317.532L713.418,317.532L713.421,327.291L712.54,327.291L712.54,327.24C712.534,327.239 712.528,327.238 712.522,327.238C712.528,327.255 712.534,327.273 712.54,327.291C709.191,327.291 706.471,325.104 706.471,322.411C706.471,321.025 707.192,319.773 708.349,320.216Z"/>
    </g>
    <g transform="matrix(0.303921,0,0,0.378007,-115.667,-88.537)">
        <path d="M833.212,264.356C833.189,261.663 835.889,259.461 839.239,259.442C842.588,259.424 845.326,261.595 845.35,264.288C846.196,361.557 848.902,360.043 840.936,455.639C840.712,458.326 837.817,460.362 834.474,460.181C831.132,460.001 828.601,457.674 828.825,454.987C836.761,359.75 834.055,361.259 833.212,264.356Z"/>
    </g>
    <g transform="matrix(0.303921,0,0,0.378007,-114.409,-89.1548)">
        <path d="M847.015,267.294C847.042,267.948 846.905,268.617 846.584,269.263C845.34,271.764 841.806,272.983 838.695,271.983L832.533,270.002C830.231,269.262 828.72,267.471 828.717,265.478C828.713,263.485 830.217,261.691 832.516,260.946C835.024,260.133 847.212,256.2 861.006,255.506C870.848,255.01 881.423,256.187 890.241,260.815C899.658,265.758 907.376,274.646 909.562,290.255C911.713,305.621 900.043,324.906 882.836,339.645C865.436,354.549 842.587,364.512 824.191,362.304C820.878,361.907 818.59,359.421 819.085,356.758C819.579,354.094 822.67,352.254 825.983,352.652C841.218,354.48 859.575,345.309 873.986,332.966C888.589,320.457 899.325,304.388 897.5,291.347C895.859,279.626 890.677,272.699 883.606,268.987C877.035,265.538 869.098,264.877 861.764,265.246C856.344,265.519 851.211,266.374 847.015,267.294Z"/>
    </g>
    <g transform="matrix(0.303921,0,0,0.378007,-114.409,-89.1548)">
        <path d="M851.809,355.245C849.079,356.806 845.287,356.29 843.346,354.095C841.406,351.9 842.047,348.851 844.777,347.291C854.208,341.902 873.09,340.316 892.095,344.092C920.227,349.681 948.095,366.42 945.207,395.777C940.077,447.936 870.292,480.817 822.682,451.222C820.032,449.574 819.544,446.507 821.593,444.377C823.642,442.246 827.457,441.854 830.107,443.501C870.524,468.625 928.752,439.288 933.107,395.008C935.452,371.167 912.03,358.105 889.184,353.566C874.201,350.59 859.244,350.997 851.809,355.245Z"/>
    </g>
    <g transform="matrix(0.303921,0,0,0.378007,-114.409,-89.1548)">
        <path d="M1023.63,351.611C1024.6,352.454 1025.21,353.573 1025.24,354.809L1025.12,356.115L1024.61,357.352L1023.84,358.329L1022.89,359.081L1021.98,359.508C1022.22,362.992 1022.56,367.907 1023.05,375.199C1025.15,368.94 1027.76,363.27 1030.98,358.925C1035,353.491 1040.07,349.969 1045.86,348.822C1051.69,347.667 1058.66,348.734 1066.6,353.791C1069.01,355.32 1071.14,357.845 1072.71,361.284C1074.52,365.243 1075.72,370.61 1076.4,376.709C1078.87,398.85 1074.72,431.192 1074.15,435.573C1073.81,438.252 1070.82,440.201 1067.49,439.923C1064.16,439.645 1061.74,437.245 1062.08,434.566C1062.63,430.324 1066.7,399.015 1064.31,377.579C1063.74,372.472 1062.83,367.962 1061.32,364.646C1060.67,363.235 1060.06,362.071 1059.07,361.443C1054.81,358.731 1051.39,357.592 1048.33,358.398C1046.03,359.004 1044.18,360.572 1042.45,362.594C1040.16,365.29 1038.26,368.781 1036.62,372.713C1027.57,394.423 1026.92,428.695 1026.6,430.49C1026.15,432.974 1023.43,434.778 1020.31,434.663C1017.19,434.548 1014.69,432.55 1014.53,430.044C1009.63,354.937 1009.43,355.429 1009.24,348.928L1009.37,347.622L1009.88,346.385L1010.65,345.409L1011.6,344.656L1013.1,343.95L1014.91,343.603L1016.86,343.729L1018.72,344.368L1019.85,345.109L1020.78,346.086C1021.13,346.55 1021.73,347.613 1022.33,348.884C1022.69,349.645 1023.24,350.783 1023.63,351.611Z"/>
    </g>
    <g transform="matrix(0.303921,0,0,0.378007,-114.409,-89.1548)">
        <path d="M1131.38,371.538C1132.58,326.757 1132.24,304.467 1132.77,294.799C1133.03,290.072 1133.87,287.578 1134.58,286.606L1136.03,285.177L1137.79,284.276L1139.67,283.877L1141.48,283.916L1143.38,284.41L1145.05,285.305C1145.83,285.847 1146.85,286.837 1147.99,288.223C1149.84,290.468 1149.08,293.499 1146.29,294.986C1145.86,295.214 1145.41,295.392 1144.95,295.522C1144.84,297.174 1144.73,299.196 1144.69,301.442C1144.32,319.267 1144.63,359.007 1141.09,439.256C1141.09,439.359 1141.08,439.462 1141.07,439.563C1141.43,440.039 1141.69,440.573 1141.84,441.151C1142.5,443.791 1140.37,446.365 1137.08,446.895C1107.94,451.596 1093.63,446.235 1087.72,437.957C1084.03,432.789 1083.32,426.064 1084.87,418.745C1086.89,409.144 1092.74,398.408 1098.7,389.571C1105.15,379.994 1111.76,372.649 1113.56,371.172L1115.39,370.043L1117.05,369.562C1122.36,368.677 1126.15,368.989 1128.91,370.143C1129.79,370.511 1130.62,370.969 1131.38,371.538ZM1128.83,438.163C1125.7,410.474 1125.87,393.962 1124.71,384.703C1124.46,382.715 1124.17,381.119 1123.71,379.868C1123.58,379.497 1123.32,379.036 1123.19,378.816C1122.94,378.801 1122.51,378.78 1122.2,378.795C1121.96,378.807 1121.72,378.826 1121.46,378.851C1119.47,381.085 1113.92,387.468 1109.37,394.221C1104.02,402.155 1098.65,411.76 1096.83,420.38C1095.81,425.209 1095.81,429.686 1098.24,433.095C1100.06,435.63 1103.33,437.366 1108.25,438.26C1113.46,439.206 1120.21,439.217 1128.83,438.163Z"/>
    </g>
    <g transform="matrix(0.303921,0,0,0.378007,-114.409,-89.1548)">
        <path d="M1318.5,371.129C1317.93,366.827 1317.33,362.082 1316.68,356.815C1316.36,354.2 1318.67,351.85 1321.91,351.501C1325.15,351.152 1328.15,352.928 1328.7,355.519C1329.1,357.399 1330.14,362.418 1330.46,369.269C1335.67,408.562 1338.32,410.405 1348.08,436.019C1349.06,438.594 1347.25,441.325 1344.05,442.113C1340.85,442.902 1337.45,441.452 1336.47,438.877C1330.5,423.21 1327.13,416.231 1324.24,404.572C1319.74,414.683 1312.27,424.829 1300.17,433.387C1298,434.923 1293.94,436.419 1289.27,435.688C1286.56,435.264 1283.54,434.11 1280.72,431.484C1277.71,428.686 1274.65,423.778 1272.84,415.34C1270.47,404.314 1269.98,386.514 1273.96,358.204C1274.34,355.527 1277.34,353.6 1280.67,353.902C1284,354.205 1286.4,356.623 1286.02,359.299C1280.84,396.172 1283.18,414.038 1287.79,422.274C1288.91,424.284 1289.98,425.508 1291.23,426.006C1291.62,426.161 1291.98,426.182 1292.16,426.059C1315.58,409.493 1319.05,386.125 1318.5,371.129Z"/>
    </g>
    <g transform="matrix(0.303921,0,0,0.378007,-114.409,-89.1548)">
        <path d="M1192.48,356.505C1193.56,355.117 1195.47,354.207 1197.63,354.207C1200.75,354.207 1203.37,356.11 1203.67,358.607C1204.38,364.343 1210.27,413.616 1218.69,429.261C1220.03,431.732 1218.61,434.608 1215.54,435.677C1212.46,436.747 1208.89,435.61 1207.56,433.138C1203.93,426.408 1200.7,413.714 1198.11,400.714C1196.25,409.926 1193.86,418.596 1190.83,424.14C1187.79,429.706 1183.46,432.576 1179.53,433.001C1175.57,433.429 1170.09,431.79 1165.14,424.85C1161.33,419.514 1160.42,410.768 1161.9,401.195C1163.96,387.98 1170.22,373.133 1176.57,364.838C1181.71,358.117 1187.58,355.482 1192.48,356.505ZM1190.78,367.317C1190.51,367.21 1190.24,367.087 1189.99,366.946C1188.4,368.621 1185.04,372.373 1183.07,375.93C1178.42,384.359 1174.48,395.828 1173.53,405.696C1172.98,411.48 1173.29,416.669 1175.66,419.99C1176.37,420.987 1177.33,421.95 1178.02,422.602C1178.57,421.944 1179.27,421.028 1179.71,420.219C1180.87,418.093 1181.91,415.446 1182.87,412.471C1187.23,398.844 1189.64,378.759 1190.78,367.317Z"/>
    </g>
    <g transform="matrix(0.303921,0,0,0.378007,-114.409,-89.1548)">
        <path d="M1234.5,376.332C1238.62,368.514 1244.34,361.416 1252.13,356.019C1254.67,354.262 1258.51,354.492 1260.69,356.533C1262.88,358.574 1262.59,361.657 1260.05,363.415C1248.71,371.266 1242.92,383.502 1239.85,395.643C1237.64,404.359 1236.88,413.069 1236.74,420.334C1236.96,425.613 1237.22,431.469 1237.54,437.984C1237.66,440.631 1235.14,442.876 1231.85,443.042C1228.56,443.208 1225.71,441.236 1225.42,438.597C1225.19,436.412 1224.44,429.463 1224.61,420.317C1222.9,377.734 1223.98,375.189 1218.11,363.468C1216.87,360.969 1218.37,358.125 1221.48,357.121C1224.59,356.116 1228.13,357.329 1229.38,359.828C1232.29,365.657 1233.66,369.305 1234.5,376.332Z"/>
    </g>
    <g transform="matrix(0.303921,0,0,0.378007,-114.409,-89.1548)">
        <path d="M976.876,347.794C977.398,347.649 977.954,347.558 978.533,347.533C981.86,347.386 984.712,349.422 984.923,352.096C984.925,352.122 984.927,352.15 984.929,352.178C985.012,353.225 985.192,355.603 985.361,358.933C987.875,394.59 992.123,395.795 1001.52,434.571C1002.16,437.214 1000.01,439.779 996.727,440.294C993.439,440.809 990.25,439.081 989.609,436.438C986.859,425.095 984.548,416.913 982.591,410.149C981.549,415.182 980.186,419.943 978.417,424.135C973.072,436.8 963.755,444.395 950.706,443.132C946.834,442.757 943.465,441.085 940.864,438.083C938.163,434.965 936.257,430.068 935.579,423.954C933.263,403.046 944.723,366.638 970.957,348.689C972.652,347.529 974.913,347.25 976.876,347.794ZM973.339,360.844C973.328,360.699 973.318,360.553 973.307,360.406C953.954,377.349 945.782,406.047 947.67,423.088C948.056,426.578 948.839,429.53 950.191,431.647C950.757,432.534 951.195,433.35 952.157,433.443C956.099,433.824 959.103,432.289 961.533,429.75C963.725,427.46 965.466,424.451 966.923,420.999C974.377,403.338 974.046,374.993 973.339,360.844Z"/>
    </g>
    <g transform="matrix(0.303921,0,0,0.378007,-114.409,-89.1548)">
        <path d="M635.161,393.966C637.121,370.613 637.119,341.841 640.302,295.691C640.487,293.002 643.353,290.94 646.698,291.089C650.042,291.238 652.607,293.542 652.421,296.231C650.073,330.283 649.395,355.006 648.411,375.071C652.585,371.165 657.518,367.869 663.332,365.458C671.245,362.177 677.707,362.459 682.753,364.836C687.386,367.018 691.109,371.348 693.284,377.676C698.436,392.67 695.453,420.549 685.614,450.065C684.747,452.667 681.416,454.213 678.18,453.515C674.945,452.818 673.022,450.14 673.889,447.539C683.037,420.096 686.375,394.215 681.584,380.275C680.289,376.506 678.787,373.674 675.722,372.943C673.815,372.488 671.588,373.015 668.895,374.132C658.152,378.586 651.461,386.978 647.04,396.279C645.53,413.527 642.952,427.879 637.309,444.054C636.463,446.48 633.459,447.989 630.376,447.536C627.294,447.084 625.146,444.819 625.42,442.31C626.206,435.102 626.53,414.769 634.031,396.57C634.391,395.696 634.768,394.828 635.161,393.966Z"/>
    </g>
    <g transform="matrix(0.303921,0,0,0.378007,-114.409,-89.1548)">
        <path d="M598.103,357.783C598.906,340.655 599.536,322.227 598.408,287.831C598.32,285.139 600.967,282.896 604.315,282.825C607.664,282.754 610.454,284.882 610.542,287.574C612.963,361.403 607.289,361.68 609.18,433.392C610.608,434.053 611.7,435.176 612.082,436.572C612.802,439.202 610.732,441.807 607.46,442.386C588.35,445.771 578.245,449.274 571.292,450.444C567.462,451.088 564.324,451.125 561.367,450.523C557.233,449.682 553.268,447.53 548.26,442.938C547.182,441.95 544.145,437.524 542.227,430.182C538.366,415.404 537.845,387.363 567.193,354.166C573.63,346.884 579.851,344.94 584.471,345.469C588.106,345.886 591.623,347.758 594.455,351.386C595.773,353.074 596.99,355.232 598.103,357.783ZM596.998,434.344C595.469,410.557 593.625,378.693 587.262,362.424C586.368,360.138 585.404,358.202 584.291,356.726C583.931,356.248 583.564,355.83 583.169,355.489C583.058,355.394 582.882,355.275 582.756,355.193C582.486,355.304 581.888,355.561 581.479,355.821C580.106,356.696 578.669,358.03 577.087,359.82C550.655,389.718 550.629,414.866 554.106,428.176C555.213,432.414 557.321,436.228 557.573,436.675C560.255,439.125 562.099,440.605 564.346,441.062C566.696,441.541 569.22,440.905 572.919,440.027C578.514,438.698 585.987,436.573 596.998,434.344Z"/>
    </g>
</svg>
